# xmcd
#
# Track frame offsets:
#	150
#	20646
#	31862
#	44469
#	58140
#	72994
#	88604
#	101603
#
# Disc length: 1519 seconds
#
# Revision: 0
# Processed by: cddbd v1.5.1PL2 Copyright (c) Steve Scherf et al.
# Submitted via: dBpowerAMP V4.0
#
DISCID=6805ed08
DTITLE=Elvin Bishop - Let It Flow
DYEAR=1900
DGENRE=Blues
TTITLE0=Fooled Around and Fell In Love
TTITLE1=Have A Good time
TTITLE2=Sure Feels Good
TTITLE3=Juke Joint Jump
TTITLE4=Let It Flow
TTITLE5=Can't Go Back
TTITLE6=Grab All The Love
TTITLE7=Struttin' My Stuff
EXTD=
EXTT0=
EXTT1=
EXTT2=
EXTT3=
EXTT4=
EXTT5=
EXTT6=
EXTT7=
PLAYORDER=
